# xmcd
#
# Track frame offsets:
#	150
#	15754
#	31291
#	48651
#	65779
#	85247
#	100880
#	117278
#	131531
#	147960
#
# Disc length: 2178 seconds
#
# Revision: 0
# Processed by: cddbd v1.4PL0 Copyright (c) Steve Scherf et al.
# Submitted via: EasyCDDAExtractor 4.6.0.1
#
DISCID=8308800a
DTITLE=Chick Willis - I Won't Give Up
DYEAR=2002
DGENRE=R&B
TTITLE0=Spring Time
TTITLE1=Keep Singing the Blues
TTITLE2=Hattie
TTITLE3=Sweet Woman - Sweet Man
TTITLE4=Hurt Me
TTITLE5=Cheating Game
TTITLE6=In the Mood We're In
TTITLE7=Doggin Me Around
TTITLE8=Won't Give Up
TTITLE9=Got to Find a Cure
EXTD=
EXTT0=
EXTT1=
EXTT2=
EXTT3=
EXTT4=
EXTT5=
EXTT6=
EXTT7=
EXTT8=
EXTT9=
PLAYORDER=
